HIERARCHY
ROOT Hips
{
  OFFSET 66.7907 91.406 14.9666
  CHANNELS 6 Xposition Yposition Zposition Zrotation Xrotation Yrotation
  JOINT spine
  {
    OFFSET 0 6.84637 0.3937
    CHANNELS 3 Zrotation Xrotation Yrotation
    JOINT spine1
    {
      OFFSET 0 9.49621 0
      CHANNELS 3 Zrotation Xrotation Yrotation
      JOINT spine2
      {
        OFFSET 0 9.09909 0
        CHANNELS 3 Zrotation Xrotation Yrotation
        JOINT Neck
        {
          OFFSET 0 23.3612 1.11378
          CHANNELS 3 Zrotation Xrotation Yrotation
          JOINT Head
          {
            OFFSET 0 7.05802 0
            CHANNELS 3 Zrotation Xrotation Yrotation
            End Site
            {
              OFFSET 0 17.0844 -5.63419
            }
          }
        }
        JOINT RightShoulder
        {
          OFFSET -3.83136 9.82631 -0.533491
          CHANNELS 3 Zrotation Xrotation Yrotation
          JOINT RightArm
          {
            OFFSET 0 12.8881 0
            CHANNELS 3 Zrotation Xrotation Yrotation
            JOINT RightArmRoll
            {
              OFFSET 0 6.50617 0
              CHANNELS 3 Zrotation Xrotation Yrotation
              JOINT RightForeArm
              {
                OFFSET 0 18.9501 0
                CHANNELS 3 Zrotation Xrotation Yrotation
                JOINT RightForeArmRoll
                {
                  OFFSET 0 7.30092 0
                  CHANNELS 3 Zrotation Xrotation Yrotation
                  JOINT RightHand
                  {
                    OFFSET 0 14.6514 0
                    CHANNELS 3 Zrotation Xrotation Yrotation
                    End Site
                    {
                      OFFSET 0 0 0
                    }
                  }
                }
              }
            }
          }
        }
        JOINT LeftShoulder
        {
          OFFSET 3.83136 9.82631 -0.533491
          CHANNELS 3 Zrotation Xrotation Yrotation
          JOINT LeftArm
          {
            OFFSET 0 12.8881 0
            CHANNELS 3 Zrotation Xrotation Yrotation
            JOINT LeftArmRoll
            {
              OFFSET 0 6.50617 0
              CHANNELS 3 Zrotation Xrotation Yrotation
              JOINT LeftForeArm
              {
                OFFSET 0 18.9501 0
                CHANNELS 3 Zrotation Xrotation Yrotation
                JOINT LeftForeArmRoll
                {
                  OFFSET 0 7.30092 0
                  CHANNELS 3 Zrotation Xrotation Yrotation
                  JOINT LeftHand
                  {
                    OFFSET 0 14.6514 0
                    CHANNELS 3 Zrotation Xrotation Yrotation
                    End Site
                    {
                      OFFSET 0 0 0
                    }
                  }
                }
              }
            }
          }
        }
      }
    }
  }
  JOINT RightUpLeg
  {
    OFFSET -6.06837 -1.11278 -0.933477
    CHANNELS 3 Zrotation Xrotation Yrotation
    JOINT RightUpLegRoll
    {
      OFFSET 0 17.1796 0
      CHANNELS 3 Zrotation Xrotation Yrotation
      JOINT RightLeg
      {
        OFFSET 0 -21.2743 0
        CHANNELS 3 Zrotation Xrotation Yrotation
        JOINT RightLegRoll
        {
          OFFSET 0 21.3439 0
          CHANNELS 3 Zrotation Xrotation Yrotation
          JOINT RightFoot
          {
            OFFSET 0 17.7652 0
            CHANNELS 3 Zrotation Xrotation Yrotation
            JOINT RightToeBase
            {
              OFFSET 0 14.8508 0
              CHANNELS 3 Zrotation Xrotation Yrotation
              End Site
              {
                OFFSET 0.0062947 7.19213 -0.829005
              }
            }
          }
        }
      }
    }
  }
  JOINT LeftUpLeg
  {
    OFFSET 6.06837 -1.11278 -0.933477
    CHANNELS 3 Zrotation Xrotation Yrotation
    JOINT LeftUpLegRoll
    {
      OFFSET 0 17.1797 0
      CHANNELS 3 Zrotation Xrotation Yrotation
      JOINT LeftLeg
      {
        OFFSET 0 21.2742 0
        CHANNELS 3 Zrotation Xrotation Yrotation
        JOINT LeftLegRoll
        {
          OFFSET 0 21.5412 0
          CHANNELS 3 Zrotation Xrotation Yrotation
          JOINT LeftFoot
          {
            OFFSET 0 17.5679 0
            CHANNELS 3 Zrotation Xrotation Yrotation
            JOINT LeftToeBase
            {
              OFFSET 0 14.8508 0
              CHANNELS 3 Zrotation Xrotation Yrotation
              End Site
              {
                OFFSET -0.0282102 7.19214 -0.829005
              }
            }
          }
        }
      }
    }
  }
}
MOTION
Frames: 13
Frame Time: 0.00208333
66.2388 97.0221 7.73193 2.50923 1.70001 -3.96815 -0.23827 -3.31239 0.0730792 -0.471961 -2.62229 0.163384 -0.473718 -0.977253 0.171237 0.678878 26.9308 -3.30161 -0.396495 -3.53565 -3.0773 27.6372 -12.6706 -9.06526 34.5852 50.1238 66.0396 3.40423e-007 -5.22958e-007 -3.7748e-006 -3.90619 21.8819 0.366131 -9.60601e-006 -5.176e-006 -3 8.02889 -4.95145 0.69769 -27.8291 -9.04627 5.03219 -27.5824 54.7641 -70.9171 -6.29388e-007 -7.90131e-008 4.63395e-006 2.76841 11.142 -1.46767 4.42347e-006 -4.38536e-006 3 -8.02889 -4.95148 -0.697711 167.378 12.3841 2.87277 -180 7.01507e-015 178.76 -176.716 12.9947 179.116 4.22802e-006 -2.08559e-006 -0.168705 -17.0101 65.2993 17.5274 8.13625 25.2291 -3.49194 -168.678 2.10492 -3.63385 4.54188e-006 -4.6773e-006 -1.33458 -0.90198 -8.58051 0.260716 -1.11663e-006 2.19439e-006 0.0781914 16.4724 64.791 -17.2127 -8.13603 25.2257 3.49595 
66.2702 97.3687 7.7756 2.48265 1.74569 -3.96287 -0.241465 -3.33397 0.0640694 -0.478696 -2.66545 0.145571 -0.480231 -1.02041 0.153541 0.684999 26.9333 -3.30245 -0.331103 -3.50519 -3.06854 28.1127 -12.5128 -8.86243 35.3156 49.5232 64.9321 3.40423e-007 -5.22958e-007 -3.7748e-006 -3.70024 21.7614 0.286478 -9.60601e-006 -5.176e-006 -3 8.02889 -4.95145 0.69769 -28.0738 -8.99714 4.97735 -28.8762 54.3957 -69.6671 -6.29388e-007 -7.90131e-008 4.63395e-006 2.60086 11.2807 -1.43269 4.42347e-006 -4.38536e-006 3 -8.02889 -4.95148 -0.697711 167.399 12.1941 2.85479 -180 7.01507e-015 178.761 -176.73 12.5017 179.145 4.22802e-006 -2.08559e-006 -0.17046 -17.0059 65.3321 17.5497 8.13649 25.2327 -3.48773 -168.684 1.92503 -3.59917 4.54188e-006 -4.6773e-006 -1.33377 -0.922245 -8.01795 0.24305 -1.11663e-006 2.19439e-006 0.087997 16.4412 64.7397 -17.1799 -8.13649 25.2326 3.48774 
66.2186 97.7239 7.83158 2.44264 1.81535 -3.97665 -0.240676 -3.35825 0.0540935 -0.47752 -2.71401 0.125534 -0.478809 -1.06897 0.133488 0.643557 26.9046 -3.27234 -0.243209 -3.46478 -3.04589 28.5622 -12.3435 -8.65319 36.0405 48.9344 63.8555 3.40423e-007 -5.22958e-007 -3.7748e-006 -3.50073 21.6297 0.21108 -9.60601e-006 -5.176e-006 -3 8.02889 -4.95145 0.69769 -28.3539 -8.98013 4.95713 -30.0679 54.0149 -68.4559 -6.29388e-007 -7.90131e-008 4.63395e-006 2.41258 11.4086 -1.39084 4.42347e-006 -4.38536e-006 3 -8.02889 -4.95148 -0.697711 167.446 12.0427 2.82075 -180 7.01508e-015 178.764 -176.75 12.0305 179.174 4.22802e-006 -2.08559e-006 -0.174178 -16.9988 65.3507 17.5627 8.13649 25.2327 -3.48773 -168.666 1.81702 -3.59477 4.54188e-006 -4.6773e-006 -1.33132 -0.958057 -7.56938 0.228981 -1.11663e-006 2.19439e-006 0.0949908 16.424 64.7098 -17.1613 -8.13649 25.2326 3.48774 
66.2979 98.0666 7.88694 2.39003 1.91026 -4.00904 -0.236454 -3.38588 0.0424866 -0.469567 -2.76925 0.10198 -0.47057 -1.1242 0.109807 0.548523 26.8476 -3.20728 -0.119898 -3.41133 -3.00624 29.0036 -12.1582 -8.43265 36.741 48.3455 62.8027 3.40423e-007 -5.22958e-007 -3.7748e-006 -3.30403 21.4852 0.138254 -9.60601e-006 -5.176e-006 -3 8.02889 -4.95145 0.69769 -28.6634 -8.99758 4.97439 -31.1707 53.6208 -67.2803 -6.29388e-007 -7.90131e-008 4.63395e-006 2.20926 11.5412 -1.34322 4.42347e-006 -4.38536e-006 3 -8.02889 -4.95148 -0.697711 167.517 11.932 2.77053 -180 7.01509e-015 178.768 -176.771 11.5791 179.204 4.22802e-006 -2.08559e-006 -0.177807 -16.9946 65.3692 17.5756 8.13649 25.2327 -3.48773 -168.624 1.77699 -3.62165 4.54188e-006 -4.6773e-006 -1.327 -1.01113 -7.22193 0.21597 -1.11663e-006 2.19439e-006 0.098076 16.425 64.7122 -17.1627 -8.13649 25.2326 3.48774 
66.3013 98.4194 7.95227 2.32675 2.02733 -4.05768 -0.22922 -3.41629 0.0295198 -0.455678 -2.83005 0.075483 -0.456362 -1.185 0.0830854 0.405932 26.7625 -3.11163 0.0346836 -3.34467 -2.95186 29.4351 -11.9598 -8.20361 37.4204 47.7571 61.7734 3.40423e-007 -5.22958e-007 -3.7748e-006 -3.11018 21.3296 0.0679443 -9.60601e-006 -5.176e-006 -3 8.02889 -4.95145 0.69769 -28.9997 -9.04523 5.02457 -32.1905 53.2148 -66.1396 -6.29388e-007 -7.90131e-008 4.63395e-006 1.9921 11.6759 -1.29052 4.42347e-006 -4.38536e-006 3 -8.02889 -4.95148 -0.697711 167.61 11.8584 2.70622 -180 7.0151e-015 178.774 -176.794 11.1478 179.233 4.22802e-006 -2.08559e-006 -0.181309 -16.9929 65.3877 17.5883 8.13649 25.2327 -3.48773 -168.562 1.79777 -3.67584 4.54188e-006 -4.6773e-006 -1.32103 -1.07945 -6.96548 0.203935 -1.11663e-006 2.19439e-006 0.0976905 16.4421 64.7428 -17.1817 -8.13649 25.2326 3.48774 
66.3481 98.7394 8.00493 2.25469 2.1635 -4.1202 -0.219394 -3.44893 0.0154646 -0.436689 -2.89532 0.0466164 -0.437028 -1.25027 0.0539096 0.221889 26.6499 -2.98976 0.216377 -3.26463 -2.88501 29.8548 -11.7514 -7.96884 38.0821 47.1701 60.7667 3.40423e-007 -5.22958e-007 -3.7748e-006 -2.91921 21.1651 8.77897e-005 -9.60601e-006 -5.176e-006 -3 8.02889 -4.95145 0.69769 -29.3602 -9.11885 5.1031 -33.1337 52.7987 -65.0329 -6.29388e-007 -7.90131e-008 4.63395e-006 1.76228 11.8097 -1.23344 4.42347e-006 -4.38536e-006 3 -8.02889 -4.95148 -0.697711 167.721 11.8182 2.62989 -180 7.01512e-015 178.78 -176.819 10.7371 179.261 4.22802e-006 -2.08559e-006 -0.184648 -16.9936 65.4062 17.6011 8.13649 25.2327 -3.48773 -168.483 1.87218 -3.75342 4.54188e-006 -4.67731e-006 -1.31365 -1.16095 -6.78992 0.1928 -1.11663e-006 2.19439e-006 0.0942722 16.4732 64.7979 -17.216 -8.13649 25.2326 3.48774 
66.092 99.0517 8.00066 2.17579 2.31568 -4.19424 -0.207396 -3.48326 0.000592331 -0.413433 -2.96395 0.0159534 -0.413408 -1.3189 0.0228674 0.00254853 26.5099 -2.84608 0.421016 -3.17104 -2.80797 30.261 -11.5359 -7.7311 38.7297 46.5851 59.7822 3.40423e-007 -5.22958e-007 -3.7748e-006 -2.73114 20.9933 -0.0653814 -9.60601e-006 -5.176e-006 -3 8.02889 -4.95145 0.69769 -29.742 -9.21416 5.20543 -34.0065 52.3737 -63.9588 -6.29388e-007 -7.90131e-008 4.63395e-006 1.52101 11.9398 -1.17267 4.42347e-006 -4.38536e-006 3 -8.02889 -4.95148 -0.697711 167.847 11.8076 2.54364 -180 7.01514e-015 178.788 -176.845 10.3473 179.289 4.22802e-006 -2.08559e-006 -0.187787 -16.9964 65.4248 17.6138 8.13649 25.2327 -3.48773 -168.39 1.99303 -3.85044 4.54188e-006 -4.67731e-006 -1.3051 -1.25358 -6.68513 0.182496 -1.11663e-006 2.19439e-006 0.0882591 16.5164 64.8735 -17.2633 -8.13649 25.2326 3.48774 
66.0901 99.3561 8.02716 2.09195 2.4808 -4.27744 -0.193644 -3.51873 -0.0148257 -0.386739 -3.03484 -0.0159323 -0.386338 -1.38978 -0.00945365 -0.245913 26.3429 -2.68501 0.644435 -3.06371 -2.72301 30.6521 -11.3164 -7.49311 39.3665 46.0029 58.819 3.40423e-007 -5.22958e-007 -3.7748e-006 -2.54599 20.8165 -0.128534 -9.60601e-006 -5.176e-006 -3 8.02889 -4.95145 0.69769 -30.1426 -9.32692 5.32702 -34.8156 51.9413 -62.9162 -6.29388e-007 -7.90131e-008 4.63395e-006 1.26952 12.0634 -1.10891 4.42347e-006 -4.38536e-006 3 -8.02889 -4.95148 -0.697711 167.986 11.8228 2.44955 -180 7.01516e-015 178.796 -176.872 9.97876 179.316 4.22802e-006 -2.08559e-006 -0.190688 -17.0012 65.4435 17.6265 8.13649 25.2327 -3.48773 -168.286 2.15313 -3.96298 4.54188e-006 -4.67731e-006 -1.29559 -1.35525 -6.64099 0.172954 -1.11663e-006 2.19439e-006 0.080089 16.5695 64.9656 -17.3215 -8.13649 25.2326 3.48774 
66.0463 99.7002 8.07009 2.00502 2.65579 -4.36743 -0.178557 -3.55477 -0.0305178 -0.357432 -3.10689 -0.0484668 -0.356649 -1.46183 -0.0424661 -0.517323 26.1492 -2.51095 0.88247 -2.94248 -2.63241 31.0267 -11.0959 -7.25757 39.9961 45.4243 57.8767 3.40423e-007 -5.22958e-007 -3.7748e-006 -2.36375 20.6363 -0.189443 -9.60601e-006 -5.176e-006 -3 8.02889 -4.95145 0.69769 -30.5592 -9.45285 5.4633 -35.5673 51.5029 -61.9036 -6.29388e-007 -7.90131e-008 4.63395e-006 1.00906 12.1776 -1.04287 4.42347e-006 -4.38536e-006 3 -8.02889 -4.95148 -0.697711 168.135 11.8602 2.34969 -180 7.01518e-015 178.805 -176.9 9.63196 179.342 4.22802e-006 -2.08559e-006 -0.193315 -17.0078 65.4624 17.6393 8.13649 25.2327 -3.48773 -168.176 2.3453 -4.08712 4.54188e-006 -4.67731e-006 -1.28537 -1.46387 -6.64738 0.16411 -1.11663e-006 2.19439e-006 0.0701999 16.6306 65.0704 -17.3882 -8.13649 25.2326 3.48774 
66.0008 99.9768 8.12865 1.91684 2.83757 -4.46185 -0.162549 -3.59084 -0.0462126 -0.32633 -3.17899 -0.0810759 -0.325167 -1.53393 -0.0755823 -0.805534 25.9292 -2.3283 1.13097 -2.80718 -2.53842 31.3832 -10.8774 -7.02716 40.622 44.8501 56.9544 3.40423e-007 -5.22958e-007 -3.7748e-006 -2.18442 20.4548 -0.248186 -9.60601e-006 -5.176e-006 -3 8.02889 -4.95145 0.69769 -30.9893 -9.58772 5.60971 -36.2684 51.0595 -60.9196 -6.29388e-007 -7.90131e-008 4.63395e-006 0.740919 12.2797 -0.975265 4.42347e-006 -4.38536e-006 3 -8.02889 -4.95148 -0.697711 168.291 11.9161 2.24617 -180 7.01521e-015 178.814 -176.928 9.30721 179.367 4.22802e-006 -2.08559e-006 -0.195632 -17.0159 65.4815 17.6522 8.13649 25.2327 -3.48773 -168.061 2.56235 -4.21894 4.54188e-006 -4.67731e-006 -1.27468 -1.57734 -6.69418 0.1559 -1.11663e-006 2.19439e-006 0.0590296 16.6977 65.184 -17.4612 -8.13649 25.2326 3.48774 
65.9713 100.329 8.16131 1.82919 3.02308 -4.55831 -0.146037 -3.62639 -0.0616384 -0.294246 -3.25005 -0.113185 -0.292711 -1.60498 -0.108214 -1.10445 25.6832 -2.14144 1.38579 -2.65763 -2.44333 31.7204 -10.6641 -6.80453 41.2478 44.2813 56.0514 3.40423e-007 -5.22958e-007 -3.7748e-006 -2.00797 20.2739 -0.304843 -9.60601e-006 -5.176e-006 -3 8.02889 -4.95145 0.69769 -31.4303 -9.72729 5.76168 -36.9255 50.6126 -59.9624 -6.29388e-007 -7.90131e-008 4.63395e-006 0.466376 12.3666 -0.906798 4.42347e-006 -4.38536e-006 3 -8.02889 -4.95148 -0.697711 168.451 11.9867 2.14107 -180 7.01523e-015 178.824 -176.958 9.00495 179.391 4.22802e-006 -2.08559e-006 -0.1976 -17.0253 65.5008 17.6652 8.13649 25.2327 -3.48773 -167.946 2.7971 -4.35451 4.54188e-006 -4.67731e-006 -1.26373 -1.69355 -6.77128 0.148263 -1.11663e-006 2.19439e-006 0.0470162 16.7685 65.3024 -17.5382 -8.13649 25.2326 3.48774 
65.9656 100.587 8.15048 1.7438 3.20926 -4.65444 -0.129433 -3.66086 -0.0765234 -0.261988 -3.31895 -0.14422 -0.260096 -1.67389 -0.139775 -1.40805 25.4118 -1.95471 1.64281 -2.49367 -2.34939 32.037 -10.4589 -6.59232 41.8769 43.7186 55.1671 3.40423e-007 -5.22958e-007 -3.7748e-006 -1.83439 20.0956 -0.359495 -9.60601e-006 -5.176e-006 -3 8.02889 -4.95145 0.69769 -31.8797 -9.86734 5.9146 -37.5453 50.1631 -59.0306 -6.29388e-007 -7.90131e-008 4.63395e-006 0.186749 12.4357 -0.838191 4.42347e-006 -4.38536e-006 3 -8.02889 -4.95148 -0.697711 168.611 12.0684 2.03649 -180 7.01525e-015 178.833 -176.988 8.72553 179.413 4.22802e-006 -2.08559e-006 -0.199183 -17.0359 65.5204 17.6785 8.13649 25.2327 -3.48773 -167.834 3.04238 -4.48989 4.54188e-006 -4.67731e-006 -1.25278 -1.81039 -6.86855 0.141137 -1.11663e-006 2.19439e-006 0.0345974 16.841 65.4218 -17.6165 -8.13649 25.2326 3.48774 
65.9189 100.867 8.20438 1.66236 3.39305 -4.74786 -0.113151 -3.69371 -0.0905958 -0.23036 -3.38461 -0.173605 -0.228131 -1.73954 -0.169675 -1.71039 25.1152 -1.77239 1.89793 -2.31513 -2.25889 32.3319 -10.2651 -6.39313 42.5129 43.1631 54.3006 3.40423e-007 -5.22958e-007 -3.7748e-006 -1.66365 19.9217 -0.412226 -9.60601e-006 -5.176e-006 -3 8.02889 -4.95145 0.69769 -32.3351 -10.0037 6.06385 -38.1346 49.7122 -58.1225 -6.29388e-007 -7.90131e-008 4.63395e-006 -0.0966291 12.4841 -0.770167 4.42347e-006 -4.38536e-006 3 -8.02889 -4.95148 -0.697711 168.77 12.1573 1.93455 -180 7.01528e-015 178.843 -177.019 8.46937 179.434 4.22802e-006 -2.08559e-006 -0.200344 -17.0474 65.5404 17.6919 8.13649 25.2327 -3.48773 -167.729 3.29104 -4.62112 4.54188e-006 -4.67731e-006 -1.24204 -1.92572 -6.97588 0.134462 -1.11663e-006 2.19439e-006 0.0222112 16.9126 65.5382 -17.6938 -8.13649 25.2326 3.48774 
